<?xml version="1.0" encoding="UTF-8" standalone="no"?>
<!DOCTYPE svg PUBLIC "-//W3C//DTD SVG 20010904//EN" "http://www.w3.org/TR/2001/REC-SVG-20010904/DTD/svg10.dtd">
<svg version="1.0" xmlns="http://www.w3.org/2000/svg" width="140.000000pt" height="140.000000pt" viewBox="0 0 140.000000 140.000000" preserveAspectRatio="xMidYMid meet">
<metadata>
Created by potrace 1.10, written by Peter Selinger 2001-2011
</metadata>
<g transform="translate(0.000000,140.000000) scale(0.100000,-0.100000)" fill="#404148" stroke="none">
<path d="M710 1024 c-327 -157 -599 -289 -603 -294 -5 -4 90 -51 210 -104 l218 -96 109 -217 c75 -150 110 -213 116 -203 4 8 117 253 250 545 293 640 300 655 297 655 -1 -1 -270 -129 -597 -286z m134 -149 c-158 -162 -292 -295 -297 -295 -22 0 -337 144 -330 151 9 9 894 437 906 438 5 1 -121 -132 -279 -294z m333 258 c-2 -5 -97 -214 -212 -465 -115 -252 -211 -458 -214 -458 -4 0 -44 75 -89 167 l-84 166 299 299 c164 164 299 298 301 298 2 0 1 -3 -1 -7z"/>
</g>
</svg>