<?xml version="1.0" encoding="UTF-8" standalone="no"?>
<!DOCTYPE svg PUBLIC "-//W3C//DTD SVG 20010904//EN" "http://www.w3.org/TR/2001/REC-SVG-20010904/DTD/svg10.dtd">
<svg version="1.0" xmlns="http://www.w3.org/2000/svg" width="140.000000pt" height="140.000000pt" viewBox="0 0 140.000000 140.000000" preserveAspectRatio="xMidYMid meet">
<metadata>
Created by potrace 1.10, written by Peter Selinger 2001-2011
</metadata>
<g transform="translate(0.000000,140.000000) scale(0.050000,-0.050000)" fill="#404148" stroke="none">
<path d="M1261 2614 c-193 -61 -310 -317 -232 -504 29 -70 353 -550 371 -549 28 1 359 522 379 596 79 293 -216 553 -518 457z m261 -232 c154 -155 -7 -399 -209 -315 -83 35 -113 84 -113 183 0 169 201 252 322 132z"/>
<path d="M425 1486 l-305 -252 0 -528 0 -529 46 37 c25 20 165 134 310 253 l264 218 0 527 c0 291 -2 528 -5 527 -3 -1 -142 -114 -310 -253z"/>
<path d="M2040 1222 l0 -521 285 -236 c157 -129 301 -248 320 -263 33 -25 35 1 35 501 l0 528 -304 249 c-168 138 -312 253 -320 257 -9 3 -16 -228 -16 -515z"/>
<path d="M760 1205 l1 -515 310 -255 310 -256 -6 535 -5 535 -286 235 c-157 130 -295 236 -305 236 -12 0 -19 -203 -19 -515z"/>
<path d="M1706 1484 l-285 -234 0 -525 c-1 -289 4 -525 9 -525 6 0 141 108 300 241 l290 241 0 519 c0 285 -7 518 -15 518 -8 -1 -143 -107 -299 -235z"/>
</g>
</svg>