<?xml version="1.0" standalone="no"?>
<!DOCTYPE svg PUBLIC "-//W3C//DTD SVG 20010904//EN"
 "http://www.w3.org/TR/2001/REC-SVG-20010904/DTD/svg10.dtd">
<svg version="1.0" xmlns="http://www.w3.org/2000/svg"
 width="40.000000pt" height="40.000000pt" viewBox="0 0 100.000000 100.000000"
 preserveAspectRatio="xMidYMid meet">
<metadata>
Created by potrace 1.10, written by Peter Selinger 2001-2011
</metadata>
<g transform="translate(0.000000,100.000000) scale(0.100000,-0.100000)"
fill="#404148" stroke="none">
<path d="M410 838 c-80 -48 -92 -77 -87 -208 2 -58 12 -137 21 -175 l17 -70
85 -58 c46 -32 88 -57 92 -55 4 2 35 23 69 47 51 36 59 46 48 55 -13 10 -12
25 6 116 27 136 23 252 -9 297 -26 37 -113 83 -157 83 -17 0 -55 -15 -85 -32z
m218 -183 c18 -6 15 -60 -5 -77 -27 -24 -100 -58 -123 -58 -25 0 -111 43 -129
64 -7 8 -11 27 -9 43 3 26 7 28 58 34 53 6 181 2 208 -6z"/>
<path d="M432 610 c-7 -12 -8 -21 -2 -25 13 -8 30 3 30 20 0 23 -15 25 -28 5z"/>
<path d="M550 614 c-9 -10 -10 -18 -2 -26 12 -12 32 -2 32 17 0 21 -16 26 -30
9z"/>
<path d="M174 539 c-6 -11 56 -169 67 -169 3 0 14 6 24 14 18 13 17 16 -18 90
-34 72 -56 92 -73 65z"/>
<path d="M232 330 c-70 -32 -84 -54 -97 -147 l-7 -53 111 0 111 0 62 46 c35
25 64 49 65 52 3 7 -149 120 -170 127 -7 2 -40 -9 -75 -25z"/>
<path d="M619 249 c-57 -50 -111 -98 -119 -105 -12 -12 14 -14 179 -14 l193 0
-7 47 c-14 92 -27 116 -75 140 -25 12 -50 22 -56 23 -6 0 -58 -41 -115 -91z"/>
</g>

   width="10%" 
   height="10%"
</svg>
