<?xml version="1.0" standalone="no"?>
<!DOCTYPE svg PUBLIC "-//W3C//DTD SVG 20010904//EN"
 "http://www.w3.org/TR/2001/REC-SVG-20010904/DTD/svg10.dtd">
<svg version="1.0" xmlns="http://www.w3.org/2000/svg"
 width="40.000000pt" height="40.000000pt" viewBox="0 0 140.000000 140.000000"
 preserveAspectRatio="xMidYMid meet">
<metadata>
Created by potrace 1.10, written by Peter Selinger 2001-2011
</metadata>
<g transform="translate(0.000000,140.000000) scale(0.050000,-0.050000)"
fill="#404148" stroke="none">
<path d="M1710 2646 c-66 -17 -90 -48 -90 -114 0 -58 -10 -68 -104 -108 l-104
-44 -52 50 c-69 66 -81 64 -178 -30 -93 -90 -100 -128 -40 -192 79 -84 -14
-267 -136 -268 -133 0 -114 -285 20 -296 114 -10 194 -202 114 -274 -75 -67
-51 -97 106 -135 81 -19 157 -35 170 -35 13 0 71 -22 127 -50 57 -27 131 -54
165 -59 214 -32 227 -32 237 4 5 19 52 52 103 72 l94 38 48 -45 c62 -58 126
-43 208 51 73 82 76 110 22 159 -84 76 -6 264 113 274 l77 6 0 140 0 139 -75
13 c-89 14 -80 5 -131 121 l-40 94 48 45 c63 59 61 82 -15 168 -97 111 -128
121 -198 62 l-59 -50 -100 42 c-91 38 -100 47 -100 106 0 94 -107 148 -230
116z m307 -472 c357 -236 223 -784 -203 -828 -420 -43 -651 484 -341 778 139
132 386 155 544 50z"/>
<path d="M190 1220 c-20 -33 -15 -783 6 -804 10 -10 67 -16 126 -12 l108 6 5
399 c5 305 0 402 -20 414 -36 24 -210 21 -225 -3z"/>
<path d="M702 1149 c-189 -43 -184 -33 -178 -345 l6 -271 100 -23 c55 -13 217
-80 360 -149 143 -68 315 -146 383 -172 l123 -47 327 49 c359 55 417 76 633
228 147 104 196 170 160 215 -12 15 -12 37 1 61 73 136 -161 145 -334 13 -163
-125 -515 -159 -708 -70 -137 63 -128 66 227 59 l323 -7 41 55 c100 133 -30
218 -393 258 -159 17 -238 37 -363 94 -189 84 -472 105 -708 52z"/>
</g>
</svg>
