<?xml version="1.0" encoding="UTF-8" standalone="no"?>
<!DOCTYPE svg PUBLIC "-//W3C//DTD SVG 20010904//EN" "http://www.w3.org/TR/2001/REC-SVG-20010904/DTD/svg10.dtd">
<svg version="1.0" xmlns="http://www.w3.org/2000/svg" width="40.000000pt" height="40.000000pt" viewBox="0 0 40.000000 40.000000" preserveAspectRatio="xMidYMid meet">
<metadata>
Created by potrace 1.10, written by Peter Selinger 2001-2011
</metadata>
<g transform="translate(0.000000,40.000000) scale(0.100000,-0.100000)" fill="#404148" stroke="none">
<path d="M125 354 c-46 -24 -63 -43 -81 -90 -34 -90 9 -184 101 -220 78 -29 174 7 208 79 55 116 -23 247 -147 247 -28 0 -64 -7 -81 -16z m43 -98 c2 -10 -1 -23 -8 -30 -14 -14 -41 19 -33 40 8 20 37 13 41 -10z m107 -6 c0 -27 -22 -39 -31 -16 -8 22 3 49 19 43 6 -2 12 -14 12 -27z m-168 -64 c-9 -22 30 -65 66 -74 18 -5 45 -5 61 -1 37 11 78 49 72 66 -3 7 0 13 8 13 27 0 23 -13 -19 -58 -40 -43 -48 -47 -90 -47 -42 0 -50 4 -89 47 -32 33 -41 49 -33 57 16 16 30 14 24 -3z"/>
</g>
</svg>